<svg width="44" height="44" fill="none" xmlns="http://www.w3.org/2000/svg"><path d="M29.333 16.5c5.063 0 9.167-2.462 9.167-5.5s-4.104-5.5-9.167-5.5c-5.062 0-9.166 2.462-9.166 5.5s4.104 5.5 9.166 5.5z" stroke="#000" stroke-width="2.75" stroke-linecap="round" stroke-linejoin="round"/><path d="M20.167 11v7.333c0 3.038 4.104 5.5 9.166 5.5s9.167-2.462 9.167-5.5V11" stroke="#000" stroke-width="2.75" stroke-linecap="round" stroke-linejoin="round"/><path d="M20.167 18.333v7.334c0 3.037 4.104 5.5 9.166 5.5s9.167-2.463 9.167-5.5v-7.334" stroke="#000" stroke-width="2.75" stroke-linecap="round" stroke-linejoin="round"/><path d="M20.167 25.667V33c0 3.038 4.104 5.5 9.166 5.5S38.5 36.038 38.5 33v-7.333M12.833 16.5H8.25a2.75 2.75 0 100 5.5h1.833a2.75 2.75 0 110 5.5H5.5M9.167 14.667V16.5m0 11v1.833V27.5z" stroke="#000" stroke-width="2.75" stroke-linecap="round" stroke-linejoin="round"/></svg>