<svg width="44" height="44" fill="none" xmlns="http://www.w3.org/2000/svg"><path d="M7.333 16.5A3.667 3.667 0 0111 12.833h20.167a3.667 3.667 0 013.666 3.667v.917a.917.917 0 00.917.916.917.917 0 01.917.917v5.5a.917.917 0 01-.917.917.917.917 0 00-.917.916v.917a3.667 3.667 0 01-3.666 3.667H21.083" stroke="#fff" stroke-width="2.75" stroke-linecap="round" stroke-linejoin="round"/><path d="M5.5 29.596c0-5.207 3.832-9.43 8.556-9.43h4.277v1.572c0 5.207-3.831 9.429-8.556 9.429H5.5v-1.572zM5.5 36.667v-5.5" stroke="#fff" stroke-width="2.75" stroke-linecap="round" stroke-linejoin="round"/></svg>