<svg width="44" height="44" fill="none" xmlns="http://www.w3.org/2000/svg"><path d="M7.333 16.5A3.667 3.667 0 0111 12.833h20.167a3.667 3.667 0 013.666 3.667v.917a.917.917 0 00.917.916.917.917 0 01.917.917v5.5a.917.917 0 01-.917.917.917.917 0 00-.917.916v.917a3.667 3.667 0 01-3.666 3.667h-8.25M5.5 27.5h11v3.667a3.667 3.667 0 01-3.667 3.666H9.167A3.667 3.667 0 015.5 31.167V27.5zM11 40.333v-5.5M7.333 27.5v-4.583M14.667 27.5v-4.583" stroke="#fff" stroke-width="2.75" stroke-linecap="round" stroke-linejoin="round"/></svg>