<svg width="44" height="44" fill="none" xmlns="http://www.w3.org/2000/svg"><g clip-path="url(#clip0_164_363)" stroke="#fff" stroke-width="2.75" stroke-linecap="round" stroke-linejoin="round"><path d="M7.33 16.5A3.66 3.66 0 0111 12.84h20.16a3.661 3.661 0 013.67 3.66v.92a.92.92 0 00.92.92.91.91 0 01.91.91v5.5a.92.92 0 01-.91.92.92.92 0 00-.92.92v.91a3.67 3.67 0 01-3.67 3.67h-4.11"/><path d="M13.92 29.9c3.64 0 6.59-1.768 6.59-3.95 0-2.181-2.95-3.95-6.59-3.95-3.64 0-6.59 1.768-6.59 3.95 0 2.181 2.95 3.95 6.59 3.95z"/><path d="M7.33 25.97v5.27c0 2.18 3 3.95 6.59 3.95s6.59-1.77 6.59-3.95v-5.27"/></g><defs><clipPath id="clip0_164_363"><path fill="#fff" d="M0 0h44v44H0z"/></clipPath></defs></svg>