<svg width="44" height="44" fill="none" xmlns="http://www.w3.org/2000/svg"><g clip-path="url(#clip0_164_368)" stroke="#fff" stroke-width="2.75" stroke-linecap="round" stroke-linejoin="round"><path d="M7.33 16.5A3.66 3.66 0 0111 12.84h20.16a3.661 3.661 0 013.67 3.66v.92a.92.92 0 00.92.92.91.91 0 01.91.91v5.5a.92.92 0 01-.91.92.92.92 0 00-.92.92v.91a3.67 3.67 0 01-3.67 3.67h-4.11M12.12 27.6l1.6 1.6 3.2-3.2"/><path d="M14.54 20.4a9.53 9.53 0 006.79 2.4 9.59 9.59 0 01-6.5 11.92l-.29.08a9.6 9.6 0 01-6.88-11.7c0-.1.05-.2.08-.3a9.55 9.55 0 006.8-2.4z"/></g><defs><clipPath id="clip0_164_368"><path fill="#fff" d="M0 0h44v44H0z"/></clipPath></defs></svg>