<svg width="44" height="44" viewBox="0 0 44 44" fill="none" xmlns="http://www.w3.org/2000/svg">
<path d="M29.3333 11H34.8333C35.3196 11 35.7859 11.1931 36.1297 11.537C36.4735 11.8808 36.6667 12.3471 36.6667 12.8333V33C36.6667 33.9725 36.2804 34.9051 35.5927 35.5927C34.9051 36.2804 33.9725 36.6667 33 36.6667C32.0276 36.6667 31.0949 36.2804 30.4073 35.5927C29.7197 34.9051 29.3333 33.9725 29.3333 33V9.16666C29.3333 8.68043 29.1402 8.21412 28.7964 7.8703C28.4526 7.52648 27.9862 7.33333 27.5 7.33333H9.16668C8.68045 7.33333 8.21413 7.52648 7.87031 7.8703C7.5265 8.21412 7.33334 8.68043 7.33334 9.16666V31.1667C7.33334 32.6254 7.91281 34.0243 8.94426 35.0558C9.97571 36.0872 11.3747 36.6667 12.8333 36.6667H33" stroke="black" stroke-width="2.75" stroke-linecap="round" stroke-linejoin="round"/>
<path d="M14.6667 14.6667H22" stroke="black" stroke-width="2.75" stroke-linecap="round" stroke-linejoin="round"/>
<path d="M14.6667 22H22" stroke="black" stroke-width="2.75" stroke-linecap="round" stroke-linejoin="round"/>
<path d="M14.6667 29.3333H22" stroke="black" stroke-width="2.75" stroke-linecap="round" stroke-linejoin="round"/>
</svg>
