<svg width="44" height="44" viewBox="0 0 44 44" fill="none" xmlns="http://www.w3.org/2000/svg">
<path d="M29.3333 16.5C34.3959 16.5 38.5 14.0376 38.5 11C38.5 7.96243 34.3959 5.5 29.3333 5.5C24.2707 5.5 20.1667 7.96243 20.1667 11C20.1667 14.0376 24.2707 16.5 29.3333 16.5Z" stroke="black" stroke-width="2.75" stroke-linecap="round" stroke-linejoin="round"/>
<path d="M20.1667 11V18.3333C20.1667 21.3712 24.2715 23.8333 29.3333 23.8333C34.3952 23.8333 38.5 21.3712 38.5 18.3333V11" stroke="black" stroke-width="2.75" stroke-linecap="round" stroke-linejoin="round"/>
<path d="M20.1667 18.3333V25.6667C20.1667 28.7045 24.2715 31.1667 29.3333 31.1667C34.3952 31.1667 38.5 28.7045 38.5 25.6667V18.3333" stroke="black" stroke-width="2.75" stroke-linecap="round" stroke-linejoin="round"/>
<path d="M20.1667 25.6667V33C20.1667 36.0378 24.2715 38.5 29.3333 38.5C34.3952 38.5 38.5 36.0378 38.5 33V25.6667" stroke="black" stroke-width="2.75" stroke-linecap="round" stroke-linejoin="round"/>
<path d="M12.8333 16.5H8.25C7.52065 16.5 6.82118 16.7897 6.30546 17.3055C5.78973 17.8212 5.5 18.5207 5.5 19.25C5.5 19.9793 5.78973 20.6788 6.30546 21.1945C6.82118 21.7103 7.52065 22 8.25 22H10.0833C10.8127 22 11.5122 22.2897 12.0279 22.8055C12.5436 23.3212 12.8333 24.0207 12.8333 24.75C12.8333 25.4793 12.5436 26.1788 12.0279 26.6945C11.5122 27.2103 10.8127 27.5 10.0833 27.5H5.5" stroke="black" stroke-width="2.75" stroke-linecap="round" stroke-linejoin="round"/>
<path d="M9.16667 14.6667V16.5M9.16667 27.5V29.3333V27.5Z" stroke="black" stroke-width="2.75" stroke-linecap="round" stroke-linejoin="round"/>
</svg>
