<svg width="44" height="44" viewBox="0 0 44 44" fill="none" xmlns="http://www.w3.org/2000/svg">
<g clip-path="url(#clip0_164_363)">
<path d="M7.32999 16.5C7.32999 16.0185 7.42499 15.5418 7.60955 15.0971C7.79411 14.6524 8.0646 14.2484 8.40552 13.9084C8.74645 13.5684 9.1511 13.299 9.5963 13.1157C10.0415 12.9324 10.5185 12.8387 11 12.84H31.16C31.6415 12.8387 32.1185 12.9324 32.5637 13.1157C33.0089 13.299 33.4136 13.5684 33.7545 13.9084C34.0954 14.2484 34.3659 14.6524 34.5504 15.0971C34.735 15.5418 34.83 16.0185 34.83 16.5V17.42C34.83 17.664 34.9269 17.898 35.0995 18.0705C35.272 18.243 35.506 18.34 35.75 18.34C35.9913 18.34 36.2228 18.4359 36.3935 18.6065C36.5641 18.7772 36.66 19.0086 36.66 19.25V24.75C36.66 24.9923 36.5645 25.2248 36.3941 25.397C36.2237 25.5693 35.9923 25.6674 35.75 25.67C35.506 25.67 35.272 25.7669 35.0995 25.9394C34.9269 26.112 34.83 26.346 34.83 26.59V27.5C34.83 28.4733 34.4433 29.4068 33.7551 30.0951C33.0668 30.7833 32.1333 31.17 31.16 31.17H27.05" stroke="white" stroke-width="2.75" stroke-linecap="round" stroke-linejoin="round"/>
<path d="M13.92 29.9C17.5596 29.9 20.51 28.1315 20.51 25.95C20.51 23.7685 17.5596 22 13.92 22C10.2804 22 7.33 23.7685 7.33 25.95C7.33 28.1315 10.2804 29.9 13.92 29.9Z" stroke="white" stroke-width="2.75" stroke-linecap="round" stroke-linejoin="round"/>
<path d="M7.32999 25.97V31.24C7.32999 33.42 10.33 35.19 13.92 35.19C17.51 35.19 20.51 33.42 20.51 31.24V25.97" stroke="white" stroke-width="2.75" stroke-linecap="round" stroke-linejoin="round"/>
</g>
<defs>
<clipPath id="clip0_164_363">
<rect width="44" height="44" fill="white"/>
</clipPath>
</defs>
</svg>
