<svg width="44" height="44" viewBox="0 0 44 44" fill="none" xmlns="http://www.w3.org/2000/svg">
<path d="M7.33334 16.5C7.33334 15.5276 7.71965 14.5949 8.40729 13.9073C9.09492 13.2197 10.0275 12.8334 11 12.8334H31.1667C32.1391 12.8334 33.0718 13.2197 33.7594 13.9073C34.447 14.5949 34.8333 15.5276 34.8333 16.5V17.4167C34.8333 17.6598 34.9299 17.893 35.1018 18.0649C35.2737 18.2368 35.5069 18.3334 35.75 18.3334C35.9931 18.3334 36.2263 18.43 36.3982 18.6019C36.5701 18.7738 36.6667 19.0069 36.6667 19.25V24.75C36.6667 24.9932 36.5701 25.2263 36.3982 25.3982C36.2263 25.5701 35.9931 25.6667 35.75 25.6667C35.5069 25.6667 35.2737 25.7633 35.1018 25.9352C34.9299 26.1071 34.8333 26.3403 34.8333 26.5834V27.5C34.8333 28.4725 34.447 29.4051 33.7594 30.0928C33.0718 30.7804 32.1391 31.1667 31.1667 31.1667H21.0833" stroke="white" stroke-width="2.75" stroke-linecap="round" stroke-linejoin="round"/>
<path d="M5.5 29.5955C5.5 24.3888 9.33167 20.1666 14.0562 20.1666H18.3333V21.7378C18.3333 26.9445 14.5017 31.1666 9.77717 31.1666H5.5V29.5955Z" stroke="white" stroke-width="2.75" stroke-linecap="round" stroke-linejoin="round"/>
<path d="M5.5 36.6666V31.1666" stroke="white" stroke-width="2.75" stroke-linecap="round" stroke-linejoin="round"/>
</svg>
