<svg width="44" height="44" viewBox="0 0 44 44" fill="none" xmlns="http://www.w3.org/2000/svg">
<g clip-path="url(#clip0_164_368)">
<path d="M7.32999 16.5C7.32998 16.0185 7.42499 15.5418 7.60954 15.0971C7.7941 14.6524 8.0646 14.2484 8.40552 13.9084C8.74644 13.5684 9.15109 13.299 9.5963 13.1157C10.0415 12.9324 10.5185 12.8387 11 12.84H31.16C31.6415 12.8387 32.1185 12.9324 32.5637 13.1157C33.0089 13.299 33.4135 13.5684 33.7545 13.9084C34.0954 14.2484 34.3659 14.6524 34.5504 15.0971C34.735 15.5418 34.83 16.0185 34.83 16.5V17.42C34.83 17.664 34.9269 17.898 35.0995 18.0705C35.272 18.243 35.506 18.34 35.75 18.34C35.9913 18.34 36.2228 18.4359 36.3935 18.6065C36.5641 18.7772 36.66 19.0086 36.66 19.25V24.75C36.66 24.9923 36.5645 25.2248 36.3941 25.397C36.2237 25.5693 35.9923 25.6674 35.75 25.67C35.506 25.67 35.272 25.7669 35.0995 25.9394C34.9269 26.112 34.83 26.346 34.83 26.59V27.5C34.83 28.4733 34.4433 29.4068 33.7551 30.0951C33.0668 30.7833 32.1333 31.17 31.16 31.17H27.05" stroke="white" stroke-width="2.75" stroke-linecap="round" stroke-linejoin="round"/>
<path d="M12.12 27.6L13.72 29.2L16.92 26" stroke="white" stroke-width="2.75" stroke-linecap="round" stroke-linejoin="round"/>
<path d="M14.54 20.4C16.4023 22.0573 18.8399 22.9189 21.33 22.8C21.6873 24.0095 21.8025 25.2775 21.6691 26.5316C21.5357 27.7856 21.1563 29.0011 20.5525 30.1083C19.9487 31.2155 19.1325 32.1928 18.1506 32.9841C17.1686 33.7754 16.0402 34.3654 14.83 34.72L14.54 34.8C12.0765 34.1603 9.96788 32.5684 8.67773 30.3744C7.38759 28.1804 7.0215 25.5639 7.65999 23.1C7.65999 23 7.70999 22.9 7.73999 22.8C10.2332 22.9194 12.6741 22.0579 14.54 20.4Z" stroke="white" stroke-width="2.75" stroke-linecap="round" stroke-linejoin="round"/>
</g>
<defs>
<clipPath id="clip0_164_368">
<rect width="44" height="44" fill="white"/>
</clipPath>
</defs>
</svg>
